<svg width="91" height="82" viewBox="0 0 91 82" fill="none" xmlns="http://www.w3.org/2000/svg">
<g clip-path="url(#clip0_14409_2852)">
<path d="M91 82H37.9093L45.1893 22.4449H83.6312L91 82Z" fill="#FF2D87"/>
<path d="M87.2712 82H34.1805L41.4605 22.4449H79.9912L87.2712 82Z" fill="#FF7CB4"/>
<path d="M48.918 48.3773C48.918 45.1581 51.0488 43.2803 53.801 43.2803C56.5532 43.2803 58.5951 45.1581 58.5951 48.4668C58.5951 51.7754 56.4644 53.5638 53.7122 53.5638C50.96 53.5638 48.918 51.6859 48.918 48.3773ZM64.5434 43.7274L68.9824 43.8168L56.2868 61.9695L51.8478 61.8801L64.5434 43.7274ZM54.9551 48.4668C54.9551 46.6783 54.4224 46.1418 53.801 46.1418C53.2683 46.1418 52.6468 46.6783 52.6468 48.3773C52.6468 50.1658 53.1795 50.7023 53.801 50.7023C54.3336 50.7917 54.9551 50.2552 54.9551 48.4668ZM62.2351 57.2301C62.2351 54.0109 64.3658 52.1331 67.118 52.1331C69.8702 52.1331 71.9122 54.0109 71.9122 57.3195C71.9122 60.6281 69.7815 62.4166 67.0293 62.4166C64.2771 62.4166 62.1463 60.4493 62.2351 57.2301ZM68.1834 57.2301C68.1834 55.4417 67.6507 54.9051 67.0293 54.9051C66.4966 54.9051 65.8751 55.4417 65.8751 57.1407C65.8751 58.9291 66.4078 59.4657 67.0293 59.4657C67.5619 59.5551 68.1834 59.0186 68.1834 57.2301Z" fill="#FF2D87"/>
<path d="M54.0673 25.3959C54.0673 26.3795 53.2683 27.1843 52.2917 27.1843C51.3151 27.1843 50.5161 26.3795 50.5161 25.3959C50.5161 24.4122 51.3151 23.6074 52.2917 23.6074C53.2683 23.6074 54.0673 24.4122 54.0673 25.3959Z" fill="#2967FF"/>
<path d="M72.6225 25.3959C72.6225 26.3795 71.8234 27.1843 70.8468 27.1843C69.8703 27.1843 69.0712 26.3795 69.0712 25.3959C69.0712 24.4122 69.8703 23.6074 70.8468 23.6074C71.8234 23.6074 72.6225 24.4122 72.6225 25.3959Z" fill="#2967FF"/>
<path d="M52.2917 25.217C51.8478 25.217 51.4927 24.8593 51.5814 24.4122C51.6702 22.5344 52.0253 17.7056 53.0019 12.7874C54.7775 4.29226 57.7073 0 61.7912 0C65.8751 0 68.7161 4.29226 70.3141 12.8768C71.2019 17.7056 71.4683 22.6238 71.5571 24.5016C71.5571 24.9487 71.2019 25.3064 70.8468 25.3064C70.4029 25.3064 70.1366 24.9487 70.0478 24.5911C69.8702 17.5267 68.1834 1.6096 61.7912 1.6096C55.399 1.6096 53.4458 17.5267 53.0907 24.5911C53.0907 24.9487 52.7356 25.217 52.2917 25.217Z" fill="#2D2D2F"/>
<path d="M49.4507 82H2.7522L9.14439 29.6881H43.0585L49.4507 82Z" fill="white"/>
<path fill-rule="evenodd" clip-rule="evenodd" d="M49.4507 82L43.0585 29.6881H9.14439L2.7522 82H49.4507ZM48.447 81.1058L42.2733 30.5823H9.92963L3.75597 81.1058H48.447Z" fill="#2967FF"/>
<path d="M46.6985 82H0L6.39219 29.6881H40.3063L46.6985 82Z" fill="white"/>
<path fill-rule="evenodd" clip-rule="evenodd" d="M46.6985 82L40.3063 29.6881H6.39219L0 82H46.6985ZM45.6948 81.1058L39.5211 30.5823H7.17743L1.00377 81.1058H45.6948Z" fill="#2967FF"/>
<path d="M15.8917 33.8909C16.7743 33.8909 17.4897 33.1703 17.4897 32.2813C17.4897 31.3924 16.7743 30.6718 15.8917 30.6718C15.0091 30.6718 14.2936 31.3924 14.2936 32.2813C14.2936 33.1703 15.0091 33.8909 15.8917 33.8909Z" fill="white"/>
<path d="M33.8254 32.2813C33.8254 33.1756 33.1151 33.8909 32.2273 33.8909C31.3395 33.8909 30.6293 33.1756 30.6293 32.2813C30.6293 31.3871 31.3395 30.6718 32.2273 30.6718C33.1151 30.6718 33.8254 31.3871 33.8254 32.2813Z" fill="white"/>
<path d="M15.9805 32.1026C15.6254 32.1026 15.359 31.7449 15.359 31.3872C15.4478 29.7776 15.7141 25.4853 16.6019 21.1931C18.1112 13.6816 20.7746 9.9259 24.3258 9.9259C27.8771 9.9259 30.4517 13.7711 31.8722 21.1931C32.6712 25.4853 32.8488 29.7776 32.9375 31.3872C32.9375 31.7449 32.6712 32.1026 32.3161 32.1026C31.961 32.1026 31.6946 31.8343 31.6058 31.4766C31.4283 25.3065 29.919 11.2672 24.4146 11.2672C18.8214 11.2672 17.0458 25.3065 16.7795 31.4766C16.6019 31.8343 16.3356 32.1026 15.9805 32.1026Z" fill="#2D2D2F"/>
<path d="M11.5414 60.807V53.6532H16.5282V55.3661H13.5382V56.555H15.9752V58.147H13.5382V60.807H11.5414Z" fill="#2967FF"/>
<path d="M17.3113 60.807V53.6532H20.6494C21.0044 53.6532 21.3321 53.7271 21.6324 53.8749C21.9328 54.0159 22.1888 54.204 22.4004 54.4391C22.6188 54.6675 22.7895 54.9328 22.9124 55.2351C23.0353 55.5306 23.0967 55.8296 23.0967 56.1318C23.0967 56.5483 23.0045 56.9379 22.8202 57.3006C22.6359 57.6566 22.3799 57.9488 22.0523 58.1772L23.5882 60.807H21.3355L20.0555 58.6105H19.308V60.807H17.3113ZM19.308 56.8976H20.5675C20.6904 56.8976 20.803 56.8304 20.9054 56.6961C21.0146 56.5617 21.0692 56.3736 21.0692 56.1318C21.0692 55.8833 21.0078 55.6952 20.8849 55.5676C20.7621 55.4332 20.6392 55.3661 20.5163 55.3661H19.308V56.8976Z" fill="#2967FF"/>
<path d="M29.4024 59.0941V60.807H24.2211V53.6532H29.3102V55.3661H26.2178V56.3736H28.8597V57.9656H26.2178V59.0941H29.4024Z" fill="#2967FF"/>
<path d="M35.5122 59.0941V60.807H30.3309V53.6532H35.42V55.3661H32.3276V56.3736H34.9695V57.9656H32.3276V59.0941H35.5122Z" fill="#2967FF"/>
</g>
<defs>
<clipPath id="clip0_14409_2852">
<rect width="91" height="82" fill="white"/>
</clipPath>
</defs>
</svg>
